<?xml version="1.0" encoding="UTF-8"?><svg id="a" xmlns="http://www.w3.org/2000/svg" viewBox="0 0 1200 1200"><defs><style>.b{fill:#000;stroke-width:0px;}</style></defs><path class="b" d="M908.688,623.371c-12.448-6.948-24.634-14.423-37.392-20.743-36.243-17.953-75.398-26.932-114.459-36.082-51.992-12.178-104.421-20.648-158.101-18.836-73.358,2.477-143.434,19.52-211.128,47.215-74.384,30.432-143.606,70.138-208.61,117.185-22.749,16.465-41.425,36.866-53.556,62.722-1.146,2.443-5.018,3.609-7.624,5.368.064-3.511-.124-7.054.321-10.515.168-1.305,1.784-2.436,2.769-3.622,6.69-8.054,6.603-8.465-2.749-12.609-6.107-2.706-6.887-7.111-1.601-11.871,44.496-40.075,89.012-80.03,142.377-108.62,62.816-33.654,125.785-67.158,193.681-89.441,74.632-24.494,151.782-31.888,230.026-27.502,54.934,3.079,108.995,11.9,160.652,31.354,24.226,9.123,47.318,21.258,70.916,32.045,2.103.961,4.059,2.332,6.24,3.007,1.854.574,3.935.419,5.915.587.18-2.149,1.027-4.505.433-6.413-3.893-12.506-7.654-25.082-12.281-37.325-15.076-39.889-4.7-76.226,14.748-111.485,2.708-4.91,5.909-4.827,10.119-2.228,10.445,6.448,15.97,15.623,18.86,27.712,9.504,39.753,19.141,79.793,41.759,114.558,14.823,22.784,32.289,43.845,48.452,65.766,4.716,6.396,9.286,12.931,13.438,19.7,4.16,6.784,9.349,11.512,17.661,11.989,1.786.102,3.747.2,5.277.984,2.285,1.17,4.259,2.946,6.366,4.464-2.168,1.487-4.176,3.879-6.533,4.297-8.236,1.459-13.512,5.929-15.997,13.76-1.847,5.819-5.106,7.154-10.504,4.115-2.149-1.21-4.779-2.268-7.175-2.237-36.742.474-73.482,1.159-110.222,1.755-46.781.758-92.594,9.087-138.247,18.205-12.811,2.559-23.871,2.345-33.08-7.993-3.03-3.402-4.121-6.967.207-9.783,26.193-17.044,49.662-38.631,80.356-48.199,18.159-5.661,36.278-11.452,54.404-17.222,1.195-.38,2.291-1.072,3.433-1.619.284-.813.568-1.627.853-2.44ZM860.222,658.162c.075,1.063.15,2.126.224,3.189,5.334,2.325,10.641,4.713,16.01,6.954,3.926,1.639,6.765.454,7.111-3.947.445-5.669,3.872-6.726,8.484-6.107,10.143,1.362,20.256,2.943,30.401,4.284,3.549.469,7.157.498,10.738.728.267-.722.534-1.444.801-2.166-4.052-3.314-7.976-6.799-12.185-9.901-6.213-4.579-12.838-7.038-20.843-4.458-7.517,2.423-15.314,3.966-22.94,6.07-5.972,1.647-11.871,3.56-17.803,5.354ZM989.354,667.891c-9.627-11.817-33.629-19.862-48.093-16.397,7.668,12.364,35.074,22.011,48.093,16.397ZM942.141,459.634l-3.648-.153c-.31,3.553-1.374,7.237-.785,10.635,1.691,9.76,3.577,19.542,6.353,29.033,1.335,4.565,4.593,8.685,7.533,12.59.809,1.074,3.823,1.241,5.41.67.824-.296,1.424-3.328.967-4.754-5.146-16.048-10.518-32.025-15.829-48.02ZM987.905,592.954c-3.941-11.924-6.375-24.511-15.609-34.105-1.014,3.667-.799,6.886.127,9.887.891,2.888,3.906,5.735,3.568,8.279-1.212,9.117,5.056,12.463,11.915,15.939ZM1026.472,666.941c.341-.877.682-1.754,1.024-2.631-6.363-2.774-12.727-5.548-20.286-8.843,5.35,12.735,11.078,15.771,19.262,11.474ZM833.057,673.547c4.105,3.847,7.905,7.644,13.11,1.049-4.062-3.496-7.83-7.581-13.11-1.049Z"/></svg>