<?xml version="1.0" encoding="UTF-8"?><svg id="a" xmlns="http://www.w3.org/2000/svg" viewBox="0 0 1200 1200"><defs><style>.b{fill:#231f20;stroke-width:0px;}</style></defs><path class="b" d="M348.68,1111.129l6.812-18.625c-.483-1.359.242-2.551,1.797-4.926,13.556-38.41,67.586-435.789,72.328-470.793L51.922,505.547l432.772-73.094c6.392-26.271,78.883-323.492,82.258-337.574l.595-2.43,3.688-.277,1.719,2.18-.366,1.559c-.509,11.836,67.211,206.656,113.375,336.188h439.383l-343.44,203.721,198.594,382.575-367.391-274.848c-21.086,28.871-229.219,314.023-250.695,346.605-.608,1.625-1.163,2.616-1.819,3.276l-.875.845-11.04,16.856ZM77.25,507.066l358.68,105.625-.313,2.43c-2.211,16.328-50.008,369.855-68.78,457.875l4.188-6.406-.867,2.392c53.38-75.552,237.983-328.302,240.044-331.142l1.711-2.324,352.023,263.355-189.584-365.203,330.18-195.863h-422.587l-.688-1.901c-10.656-29.892-95.336-267.887-111.648-327.762-14.805,60.879-79.102,324.539-79.812,327.484l-.453,1.82-1.845.315-410.249,69.305Z"/><path class="b" d="M354.327,1114.84l-12-6.035,6.234-17.039c-.031-2.815,1.305-5.151,2.602-7.16,10.984-33.573,49.306-303.352,70.978-462.973l-372.141-109.602.797-13.152,428.375-72.344,21.569-88.492c23.672-97.082,57.367-235.25,59.634-244.734l1.772-7.227,12.164-.922,5.969,7.582-.883,3.75c2.141,16.602,58.289,179.895,111.328,328.844h459.275l-359.156,213.047,195.656,376.894-10.056,8.53-361.913-270.741c-36.608,50.151-223.812,306.762-246.078,340.219-.633,1.582-1.562,3.418-3.077,4.926l-11.049,16.629ZM107.258,508.863l336.125,98.979-1.056,8.152c-4.655,34.379-42.469,313.031-63.147,428.641,54.391-76.051,170.938-235.922,222.022-305.938l9.313-12.668,333.797,249.715-178.906-344.627,314.461-186.551h-402.665l-2.312-6.367c-8.703-24.422-78.398-220.191-104.633-304.145-14.961,61.445-45.095,185.059-61.892,253.969l-13.516,55.34-387.591,65.5Z"/><path class="b" d="M131.984,500.727c-2.469,8.599-3.352,17.396-2.641,26.353-.234,11.121,16.023,7.026,21.594,3.828,18.609-10.699,29.367-23.297,44.478-38.832-7.97-.633-15.931-1.254-23.906-1.875,1.742,10.754.852,21.293-2.648,31.608-2.297,11.078,17.336,6.563,21.603,3.828,16.703-10.75,29.319-23.285,44.469-36.203-7.961-.621-15.93-1.241-23.906-1.875-1.758,14.056-3.516,28.105-5.272,42.16-1.328,10.728,16.858,7.422,21.602,3.832,26.563-20.211,44.945-46.758,68.181-70.469-7.97-.621-15.931-1.254-23.906-1.875-7.031,24.078-16.695,47.09-23.728,71.141-3.483,11.98,20.095,5.56,23.906,1.863,21.055-20.262,34.836-42.625,52.703-65.855-7.703-1.375-15.398-2.75-23.086-4.121-14.453,31.91-34.016,58.695-35.07,94.466-.344,11.938,18.953,7.062,23.906,1.875,29.141-30.566,47.562-69.105,79.039-97.492-7.703-1.371-15.392-2.746-23.086-4.121-20.859,41.727-49.438,76.914-58.789,123.445-2.391,11.94,19.78,6.352,23.905,1.862,43.664-47.457,70.039-108.547,126.781-142.94-6.922-2.031-13.852-4.056-20.772-6.074-28.203,46.016-64.009,85.828-77.22,139.242-2.836,11.543,19.978,6.655,23.906,1.875,37.094-44.949,65.883-96.234,110.648-134.355-7.703-1.371-15.392-2.746-23.086-4.121-26.845,50.313-65.134,92.048-82.484,147.142-3.594,11.438,20.07,6.207,23.906,1.875,44.562-50.191,77.28-110.234,129.414-153.48-6.923-2.031-13.859-4.055-20.781-6.074-24.094,56.017-60.836,104.531-89.578,158.074-5.758,10.699,12.672,10.039,17.875,7.703,77.672-34.727,117.961-126.772,159.633-195.43-8.227-.648-16.469-1.309-24.703-1.969-37.703,68.379-80.672,133.508-121.18,200.234,8.227.648,16.469,1.31,24.695,1.957,43.75-83.608,82.25-169.633,121.188-255.551,5.875-12.945-20.25-11.055-24.703-1.969-24.022,49.016-62.897,87.954-86.938,137.008-6.469,13.195,17.914,9.086,23.094,4.121,56.766-54.418,80.516-130.957,131.719-189.695-7.155-2.086-14.312-4.188-21.469-6.273-33.047,40.945-65.992,81.215-93.82,125.965-7.155,11.491,17.906,10.526,23.086,4.121,38.07-46.969,64.72-99.59,88.548-154.958,5.694-13.207-17.767-9.746-23.086-4.121-38.781,41-70.781,86.277-91.188,139.16-5.047,13.078,17.766,10.461,23.086,4.121,43.258-51.444,83.781-110.75,94.648-178.281,1.93-12.047-19.625-6.434-23.906-1.875-43.32,46.004-76.648,96.895-101.728,154.957-5.789,13.391,19.931,10.406,24.695,1.969,29.195-51.555,54.18-103.766,71.961-160.32,3.789-12.102-21.608-5.617-25.516.277-30.172,45.395-53.273,94.355-79.039,142.277,8.227.645,16.469,1.305,24.695,1.953,25.336-47.074,50.43-92.551,64.047-144.508,2.977-11.375-20.023-6.816-23.906-1.879-13.25,16.801-21.82,32.426-30.586,52.215,8.5-.094,17.008-.188,25.516-.277,11.953-35.414,18.875-71.473,26.336-108.02,2.414-11.848-24.039-7.805-26.336,2.523-4.188,18.914-9.93,36.879-15.797,55.328-3.766,11.902,21.609,5.906,25.516-.277,8.914-14.949,18.914-29.16,30-42.633-7.93.129-15.866.238-23.805.367,6.563,53.414-35.516,96.105-31.608,150.164.758,10.395,20.116,3.078,23.805-.355,9.772-7.266,19.531-14.516,29.297-21.766-7.203-1.27-14.398-2.551-21.594-3.832-5.806,64.23-52.547,113.391-63.234,176.527-2.242,13.285,21.508,5.271,25.523-.276,27.352-37.75,47.836-79.355,82.694-111.133-7.703-1.375-15.397-2.75-23.086-4.121-32.875,67.016-77.641,126.852-113.289,192.309-7.062,12.973,18.017,8.824,23.086,4.121,58.617-54.313,77.164-136.758,137-189.68-7.969-.621-15.93-1.258-23.905-1.879-41.957,120.525-145.035,206.005-187.06,326.689-3.875,11.133,20.086,6.313,23.906,1.863,79.789-92.828,142.461-197.344,204.478-302.492-8.509.105-17.017.184-25.523.289-15.82,68.973-62.328,128.172-95.047,190-33.984,64.203-71.438,126.254-114.891,184.492-8.117,10.867,17.694,9.629,23.086,4.121,91.805-93.66,142.25-215.652,209.727-326.203-8.5.094-17.008.184-25.516.276-.484,67.164-49.859,127.418-87.031,179.777-50.625,71.271-101.516,144.42-138.719,223.693-6.134,13.051,17.852,9.641,23.086,4.121,66.516-69.884,112.875-154.879,173.883-229.199-7.695-1.375-15.383-2.75-23.086-4.121-72.353,123.984-171.797,230.902-229.203,363.578-6.047,13.949,19.578,9.219,24.703,1.957,77.281-109.34,171.477-205.681,239.742-321.406-8.234-.664-16.478-1.324-24.703-1.984-38.978,87.652-94.211,165.289-151.642,241.672-37.43,49.781-80.516,94.938-91.562,158.402-2.32,13.367,21.508,5.125,25.522-.277,63.744-85.653,123.643-173.911,181.783-263.461,43.642-67.176,65.922-157.625,135.711-204.012-6.922-2.035-13.852-4.055-20.772-6.078-23.523,55.134-80.148,86.621-93.023,147.142-2.633,12.375,19.82,5.612,23.906,1.875,41.18-37.59,73.022-82.711,108.586-125.359,46.898-56.254,115.82-94.727,173.633-138.776-5.617-3.396-11.242-6.789-16.859-10.185-90.022,69.91-150.422,167.93-234.147,244.336,7.156,2.09,14.312,4.188,21.477,6.273,43.267-39.609,90.367-74.216,136.267-110.629,44.897-35.621,79.194-82.185,124.883-116.617-6.922-2.031-13.852-4.056-20.773-6.074-36.625,74.098-113.43,121.039-175.233,172.396,6.391,2.745,12.772,5.491,19.164,8.241,74.137-63.72,147.518-127.673,232.16-177.204-6.398-2.745-12.773-5.491-19.173-8.227-41.562,40.824-91.647,70.305-137.312,106.059-11.055,8.652.727,15.587,10.555,13.039,44.695-11.608,80.375-34.737,117.148-62.184,53.383-39.813,109.242-71.641,165.789-106.646,12.25-7.594-1.453-15.598-10.556-13.034-57.102,16.047-104.758,49.358-153.772,81.68-63.899,42.133-131.446,80.344-197.656,118.754-15.375,8.93,7.078,15.729,16.852,10.195,85.484-48.474,176.017-88.021,252.906-150.177,8.945-7.227,2.781-14.077-7-13.684-45.812,1.887-85.477,22.98-124.656,45.344-67.93,38.793-136,77.677-206.336,111.965,4.648,3.938,9.298,7.871,13.945,11.81,76.844-54.379,158.978-100.805,231.844-160.703,10.634-8.746-.461-15.836-10.555-13.035-45.5,12.599-82.656,38.828-120.445,66.435-61.547,44.934-126.03,87.043-191.461,126.112,6.392,2.746,12.773,5.48,19.164,8.216,84.594-84.082,189.125-145.078,268.719-234.474,6.406-7.184-1.897-12.863-9.312-11.727-51.672,7.938-90.57,36.336-131.211,68.086-53.555,41.858-114.211,73.77-162.844,121.793-10.633,10.487,9.938,12.44,16.266,9.867,26.57-10.855,44.641-27.224,64.93-47.496,36.759-36.759,79.945-64.813,119.431-98.359,11.633-9.895-10.531-11.957-16.267-9.867-87.367,31.685-155.586,101.188-218.602,166.938-10.914,11.371,12.32,13.102,19.164,8.215,60.094-42.875,105.516-101.176,152.469-157.387,8.922-10.677-9.016-13.884-16.258-9.867-50.148,27.828-85.797,71.152-132,104.383,6.391,2.746,12.772,5.496,19.164,8.242,43.164-44.566,90.57-84.742,125.438-136.521,7.422-11.026-15.93-9.812-20.772-6.073-28.531,21.948-54.789,46.176-81.353,70.448,7.156,2.091,14.32,4.177,21.478,6.263,21.608-23.935,46.875-43.215,71.453-63.902-6.392-2.746-12.767-5.492-19.164-8.227-35.617,31.555-66.57,66.344-85.914,110.168-4.642,10.487,12.016,10.977,17.867,7.715,27.733-15.441,51.633-36.137,81.68-47.43-6.219-1.813-12.453-3.634-18.688-5.457-5.75,87.438-113.219,136.02-149.358,211.145-6.353,13.184,17.883,9.246,23.086,4.121,80.992-79.539,155.188-165.469,245.344-235.156-6.391-2.746-12.772-5.479-19.164-8.215-7.914,9.641-15.812,19.309-23.711,28.977-10.266,12.535,14.805,14.427,21.478,6.263,7.913-9.642,15.812-19.31,23.711-28.978,9.866-12.047-12.156-13.645-19.164-8.219-91.773,70.902-167.523,158.078-249.97,239.07,7.703,1.371,15.406,2.746,23.095,4.121,36.858-76.621,144.991-124.605,150.991-215.664.634-9.681-13.305-7.478-18.688-5.453-30.445,11.422-53.336,31.633-81.68,47.414,5.952,2.578,11.914,5.141,17.866,7.715,18.625-42.16,48.517-75.578,82.695-105.863,11.109-9.828-12.016-14.238-19.164-8.229-26.297,22.125-53,42.254-76.078,67.823-11.242,12.445,14.422,12.724,21.478,6.263,25.108-22.914,49.727-45.767,76.727-66.543-6.922-2.021-13.852-4.039-20.772-6.074-33.828,50.242-80.398,89.022-122.22,132.211-10.944,11.309,12.32,13.156,19.164,8.242,43.961-31.617,78.523-74.664,126.195-101.121l-16.266-9.867c-45.556,54.539-89.523,111.863-147.853,153.492,6.398,2.75,12.773,5.483,19.172,8.215,60.267-62.854,124.664-129.465,208.172-159.75-5.414-3.289-10.844-6.566-16.258-9.867-28.891,24.539-60.047,45.926-89.897,69.185-30.117,23.473-46.172,54.035-84.031,69.504,5.414,3.285,10.844,6.574,16.258,9.862,33.867-33.43,73.478-58.577,113.063-84.53,50.116-32.875,94.108-84.836,156.664-94.449-3.103-3.91-6.211-7.809-9.313-11.719-79.539,89.328-184.147,150.414-268.719,234.483-11.586,11.492,12.656,12.103,19.164,8.215,50.242-29.979,98.336-63.227,147.539-94.831,49.922-32.07,93.155-75.763,151.772-92.009-3.516-4.332-7.039-8.68-10.555-13.022-72.883,59.91-155,106.324-231.844,160.715-13.383,9.457,4.547,16.406,13.944,11.809,50.423-24.565,99.392-51.668,148.148-79.354,51.258-29.138,108.531-71.746,168.953-74.228-2.32-4.547-4.664-9.112-7-13.672-76.806,62.09-167.5,101.742-252.906,150.164,5.609,3.406,11.242,6.789,16.853,10.195,54.852-31.832,108.491-65.672,163.336-97.478,58.03-33.68,109.797-78.797,175.491-97.276-3.516-4.344-7.038-8.676-10.555-13.035-38.18,23.641-77.758,44.879-115.922,68.512-53.117,32.887-91.156,78.191-154.406,94.633,3.517,4.332,7.039,8.681,10.555,13.023,47.32-37.062,98.875-67.676,141.931-109.969,11.694-11.48-12.703-12.008-19.164-8.23-86.353,50.547-161.188,116.142-236.781,181.099-11.188,9.616,11.953,14.237,19.164,8.241,64.539-53.637,144.844-103.233,183.078-180.633,5.906-11.94-15.478-10.065-20.773-6.078-45.742,34.488-80.647,80.228-124.897,116.629-46.836,38.539-96.078,73.517-140.875,114.539-11.742,10.738,13.944,13.156,21.477,6.273,82.195-74.98,141.219-171.848,229.531-240.426,14.062-10.91-7.508-17.306-16.859-10.185-48.602,37.047-106.703,69.199-149.844,112.599-48.897,49.188-85.641,108.573-136.992,155.448,7.961.621,15.931,1.255,23.906,1.875,12.336-57.995,68.75-89.565,91.383-142.659,5.289-12.392-15.156-9.802-20.772-6.078-64.009,42.559-93.734,120.948-128.5,186.301-54.103,101.729-128.203,197.145-196.845,289.406,8.509-.095,17.017-.188,25.517-.277,12.711-73.109,71.062-128.121,113.727-185.906,48.906-66.254,94.305-134.233,127.844-209.664,5.938-13.367-19.827-10.237-24.702-1.983-68.229,115.657-162.51,212.118-239.752,321.426,8.234.647,16.477,1.309,24.703,1.957,57.414-132.664,156.844-239.57,229.195-363.57,6.922-11.859-17.945-10.379-23.087-4.121-60.969,74.258-107.444,159.383-173.883,229.215,7.703,1.375,15.398,2.75,23.086,4.121,37.22-79.289,88.109-152.422,138.728-223.707,38.156-53.742,88.164-115.133,88.664-184.266.094-12.863-21.234-6.734-25.517.277-66.5,108.952-116.022,229.559-206.508,321.895,7.695,1.375,15.383,2.75,23.086,4.121,48.344-64.771,88.336-134.273,126.086-205.621,30.392-57.402,70.728-109.047,85.492-173.371,2.844-12.363-21.711-6.156-25.516.289-61.117,103.605-122.595,206.656-201.25,298.188,7.961.609,15.93,1.242,23.905,1.863,41.961-120.512,145.039-205.996,187.056-326.676,4.155-11.953-20.306-5.074-23.906-1.879-60.086,53.125-78.367,135.344-137,189.695,7.703,1.375,15.391,2.75,23.094,4.12,35.648-65.473,80.422-125.288,113.281-192.335,6.555-13.34-17.938-8.824-23.086-4.121-36.281,33.086-57.406,76.078-85.922,115.441,8.508-.082,17.016-.188,25.522-.277,10.681-63.188,57.398-112.046,63.228-176.516,1-11.199-16.539-6.801-21.594-3.828-19.673,11.57-17.031,9.891-33.923,25.66,7.938-.117,15.859-.234,23.806-.355-3.938-54.352,38.328-95.535,31.602-150.164-1.203-9.801-20.117-4.039-23.797.359-12.602,15.004-22.711,30.336-33.219,46.941,8.5-.094,17.008-.188,25.516-.277,5.853-18.453,11.594-36.43,15.797-55.332-8.78.832-17.555,1.68-26.336,2.523-7.453,36.563-14.383,72.621-26.336,108.016-3.608,10.715,21.992,7.688,25.517-.277,6.562-17.355,15.68-33.324,27.366-47.906-7.961-.617-15.93-1.238-23.905-1.875-13.195,50.43-37.931,94.52-62.406,140.035-6.609,12.258,19.852,10.977,24.695,1.953,25.78-47.891,48.883-96.867,79.039-142.266-8.509.094-17.017.188-25.517.277-17.358,55.266-41.883,105.586-70.32,155.832,8.228.66,16.47,1.32,24.695,1.969,24.289-56.203,56.438-105.973,98.508-150.652-7.961-.621-15.93-1.258-23.905-1.879-10.273,63.918-48.906,120.855-89.789,169.488,7.703,1.375,15.397,2.746,23.086,4.121,19.758-51.18,50.328-95.047,87.969-134.84-7.703-1.375-15.398-2.75-23.086-4.121-23.103,53.625-48.359,105.004-85.328,150.648,7.703,1.375,15.398,2.75,23.086,4.121,26.844-43.148,58.75-82.191,90.594-121.672,10.281-12.73-14.688-14.078-21.469-6.273-51.148,58.656-75.148,135.438-131.727,189.684,7.694,1.371,15.397,2.746,23.086,4.121,24.022-49.004,62.914-87.941,86.938-136.996-8.227-.66-16.469-1.32-24.703-1.969-38.944,85.918-77.453,171.93-121.18,255.563-6.648,12.684,19.648,10.277,24.695,1.957,40.508-66.703,83.492-131.844,121.188-200.223,6.828-12.375-19.586-10.396-24.703-1.969-37.983,62.566-75.772,152.555-145.977,183.949,5.961,2.578,11.914,5.141,17.875,7.703,28.75-53.547,65.5-102.047,89.578-158.078,5.108-11.871-15.203-10.695-20.781-6.074-53.993,44.79-87.883,105.427-134.032,157.404,7.961.621,15.931,1.254,23.906,1.875,16.852-53.53,54.836-93.897,80.844-142.66,7.109-13.301-18.094-8.375-23.086-4.12-44.983,38.301-73.397,89.206-110.647,134.366,7.969.617,15.93,1.254,23.905,1.875,12.813-51.871,48.336-90.276,75.578-134.75,7.336-11.953-16.141-8.891-20.772-6.078-59.188,35.888-85.845,97.306-131.406,146.863,7.961.605,15.93,1.242,23.906,1.863,9.086-45.238,37.008-78.629,57.147-118.941,6.672-13.34-17.961-8.741-23.086-4.121-31.703,28.57-49.758,66.771-79.039,97.478,7.97.633,15.931,1.254,23.906,1.875.978-33.392,20-60.254,33.43-89.961,5.711-12.613-18.022-10.711-23.086-4.121-17.266,22.414-32.258,46.164-52.702,65.871,7.969.604,15.93,1.242,23.905,1.862,7.031-24.077,16.695-47.073,23.728-71.129,3.444-11.832-20.056-5.809-23.906-1.875-21.641,22.06-38.703,47.646-63.562,66.543,7.202,1.281,14.397,2.563,21.602,3.832,1.75-14.055,3.508-28.108,5.266-42.147,1.57-12.613-19.358-5.746-23.905-1.875-12.875,11.266-26.164,22.031-39.853,32.293,7.203,1.27,14.398,2.551,21.603,3.832,3.483-10.328,4.366-20.871,2.641-31.621-.492-11.754-18.523-7.422-23.906-1.875-11.78,13.312-25.069,24.961-39.852,34.934,7.195,1.281,14.397,2.552,21.594,3.832-.727-8.969.156-17.754,2.641-26.352,2.417-11.767-24.177-7.951-26.341,2.522h0Z"/><path class="b" d="M723.366,616.695c-60.522,9.362-96.641,65.035-130.672,111-9.569,12.93,11.742,14.66,19.461,9.285,41.313-28.859,69.181-70.97,108.017-102.759-6.484-3.094-12.97-6.184-19.453-9.272-39.945,38.621-87.086,75.539-94.547,133.797-1.281,10.039,13.508,8.44,18.897,6.289,61.469-24.594,96.142-84.426,147.789-122.902-6.483-3.09-12.969-6.195-19.461-9.285-38.164,45.384-107.022,72.828-118.25,136.427-1.719,9.684,13.859,8.862,18.898,6.289,63.202-32.294,103.461-93.306,165.977-126.457-5.522-3.656-11.039-7.328-16.562-10.974-35.384,36.082-74.892,67.359-105.375,108.017-7.117,9.479,4.858,14.688,13.18,12.215,39.758-11.81,67.578-39.228,103.492-59.211-5.523-3.646-11.047-7.316-16.57-10.978-29.031,33.59-66.133,58.302-97.469,89.578-8.984,8.969,6.125,14.146,13.18,12.219,35.211-9.616,56.625-35.901,87.688-53.93-5.523-3.66-11.039-7.332-16.563-10.977-21.305,21.237-45.625,38.305-65.867,60.598-10.108,11.109,9.438,13.91,16.563,10.977,24.022-9.879,43.897-25.266,66.133-38.577-6.484-3.095-12.969-6.195-19.461-9.285-16.969,17.418-35.734,32.66-52.695,50.059-11.647,11.953,12.438,13.474,19.453,9.285,23.156-13.844,44.211-30.645,68.25-43.086-5.523-3.672-11.047-7.332-16.562-10.988-17.384,20.496-36.523,39.07-52.688,60.599-8.719,11.598,8.633,14.371,16.563,10.977,26.914-11.504,49.344-28.227,74.016-43.863-6.484-3.094-12.969-6.184-19.453-9.272-11.219,17.727-25.391,32.863-42.508,45.371-13.797,11.897,7.147,18.055,17.172,11.332,17.859-11.97,34.828-24.927,52.688-36.892-6.483-3.09-12.969-6.184-19.452-9.272-15.75,17.621-31.781,34.977-47.423,52.703-10.602,12.02,12.039,14.698,19.462,9.27,14.219-10.871,29.069-20.84,44.522-29.914-5.522-3.66-11.047-7.332-16.562-10.977-14.078,18.477-31.031,33.969-44.781,52.688-9.478,12.902,11.734,14.777,19.461,9.285,15.93-11.863,32.531-22.707,49.789-32.547-6.047-2.906-12.078-5.797-18.133-8.691-5.267,7.898-10.539,15.798-15.806,23.695-1.452,2.195-.852,4.969.461,7,22.82,35.398,61.853,48.488,92.203,76.398,6.156,5.651,30.172,2.43,25.047-9.168-18.312-41.423-29.852-86.806-51.461-126.642-27.952-51.535-76-89.168-90.805-147.348-8.352,3.051-16.695,6.102-25.047,9.164,75.695,100.848,88.391,233.891,168.617,331.949,7.062,8.651,31.483-.185,23.961-11.332-46.625-69-144.211-108.414-154.353-198.06-7.727,3.621-15.453,7.254-23.18,10.871,60.031,47.59,82.523,122.891,127.219,182.723,5.789,7.738,29.353,1.521,25.047-9.168-16.077-39.969-35.866-77.159-58.319-113.879-24.328-39.797-66.556-68.604-70.767-117.977-7.727,3.633-15.453,7.254-23.18,10.883,57.164,40.945,83.711,107.277,116.695,166.898,4.914,8.901,28.383,1.413,25.039-9.164-27.273-86.25-85.836-150.892-140.72-220.841-7.991,3.777-15.969,7.556-23.961,11.332,32.031,35.517,53.453,76.978,75.734,118.953,26.156,49.267,59.547,93.883,68.078,150.254,4.766-4.254,9.539-8.479,14.305-12.729-45.414,3.379-94.242-65.305-125.93-92.988-52.313-45.727-119.648-60.004-152.047-127.854-6.898,4.016-13.781,8.03-20.672,12.062,100.212,44.417,134.867,165.507,237.11,208.132,6.445,2.681,23.789-2.457,20.672-12.059-23.655-73.043-81.086-127.063-132.805-181.324-7.359,4.348-14.727,8.691-22.102,13.039,37.727,24.922,73.241,53.398,108.047,82.207,21.367,17.684,106.719,78.074,97,114.367-3.25,12.125,23.453,8.879,26.414-2.176,9.508-35.492-48.595-79.013-70.164-98.242-44.469-39.691-91.267-77.996-141.063-110.898-7.211-4.766-31.047,3.66-22.094,13.039,50.336,52.805,107.578,105.797,130.641,176.988,6.892-4.027,13.773-8.06,20.673-12.074-101.203-42.188-136.337-163.461-237.117-208.133-5.664-2.508-25.063,2.852-20.664,12.074,33.43,70,100.547,90.065,157.938,135.594,40.617,32.199,85.164,101.066,143.681,96.711,6.469-.477,15.469-5.047,14.305-12.734-7.781-51.444-34.883-92.879-60.719-137.151-27.367-46.918-48.478-95.603-85.259-136.388-7.438-8.241-32.188.855-23.961,11.332,53.759,68.535,111.742,131.738,138.556,216.509,8.344-3.052,16.694-6.103,25.039-9.168-34.009-61.496-61.609-128.185-120.414-170.306-7.845-5.629-24.078.422-23.181,10.855,3.297,38.699,26.931,63.676,51.539,92.18,34.25,39.691,58.181,91.547,77.539,139.676,8.353-3.062,16.695-6.112,25.047-9.164-45.938-61.5-69.266-137.219-130.944-186.129-7.5-5.944-24.328.66-23.181,10.867,10.406,92.023,109.009,132.098,156.517,202.391,7.992-3.776,15.969-7.555,23.961-11.332-80.125-97.952-92.883-231.051-168.617-331.948-6.008-8.027-27.898-2.031-25.039,9.168,10.141,39.848,31.539,67.309,57.898,98.387,42.891,50.563,58.077,116.152,84.358,175.603,8.353-3.052,16.695-6.103,25.047-9.164-27.444-25.23-103.961-51.091-75.938-93.117,6.828-10.25-12.938-11.547-18.133-8.691-19.695,10.777-37.242,22.902-55.578,35.953,6.483,3.09,12.969,6.18,19.453,9.271,13.75-18.716,30.694-34.207,44.78-52.699,8.423-11.055-8.562-15.402-16.569-10.978-18.023,9.945-33.642,21.148-50.306,33.324,6.484,3.09,12.97,6.18,19.453,9.273,15.642-17.728,31.672-35.056,47.422-52.688,10.884-12.18-12.141-14.188-19.461-9.285-17.858,11.966-34.844,24.923-52.688,36.892,5.719,3.776,11.453,7.555,17.172,11.332,17.953-15.469,32.992-30.129,47.078-49.478,9.625-13.25-11.758-14.159-19.461-9.289-22.728,14.398-43.133,29.734-68.234,40.457,5.523,3.66,11.047,7.332,16.563,10.978,16.172-21.504,35.312-40.074,52.688-60.586,9.267-10.922-8.953-14.926-16.562-10.978-26.133,13.527-48.806,31.41-74.031,46.496,6.484,3.09,12.969,6.181,19.461,9.271,16.969-17.406,35.734-32.664,52.695-50.06,11.647-11.94-12.431-13.483-19.453-9.272-20.156,12.073-38.367,26.129-60.353,35.176,5.523,3.656,11.048,7.328,16.563,10.977,20.242-22.258,44.647-39.44,65.875-60.602,10.047-10.012-9.273-15.215-16.563-10.977-26.75,15.52-50.905,43.258-80.93,51.448,4.398,4.078,8.781,8.16,13.18,12.23,31.461-31.41,68.328-55.845,97.478-89.578,9.258-10.711-8.969-15.215-16.563-10.988-32.164,17.883-61.102,46.148-96.719,56.728,4.398,4.082,8.781,8.147,13.18,12.219,30.484-40.629,69.978-71.906,105.375-108.016,10.103-10.306-9.327-14.82-16.562-10.978-62.609,33.191-103.133,94.32-165.978,126.453,6.306,2.102,12.603,4.188,18.898,6.289,10.164-57.523,78.344-85.142,113.578-127.023,10.289-12.229-11.978-14.858-19.453-9.284-49.344,36.758-83.805,96.194-142,119.491,6.297,2.091,12.602,4.177,18.898,6.277,6.944-54.234,53.086-88.828,89.866-124.396,11.056-10.688-11.897-15.469-19.452-9.284-38.648,31.645-66.97,74.082-108.017,102.758,6.484,3.09,12.969,6.18,19.453,9.272,26.18-35.358,59.297-92.473,106.445-99.762,14.037-2.183,20.272-21.218,2.49-18.468h0Z"/></svg>