<?xml version="1.0" encoding="UTF-8"?><svg id="a" xmlns="http://www.w3.org/2000/svg" viewBox="0 0 1200 1200"><defs><style>.b{fill:#000;stroke-width:0px;}</style></defs><path class="b" d="M706.161,814.083c-5.008,21.307-10.894,42.16-14.71,63.386-10.834,60.263-20.918,120.662-31.06,181.048-1.937,11.532-7.171,20.389-17.485,25.885-13.275,7.073-25.564,3.124-31.677-10.671-38.237-86.291-76.3-172.658-114.441-258.991-2.317-5.245-4.714-10.458-7.22-15.615-8.136-16.739-21.673-26.024-40.097-26.429-43.024-.944-86.064-1.138-129.097-1.693-51.028-.658-102.056-1.349-153.083-2.083-14.206-.204-23.782-7.8-26.962-21.107-2.911-12.181,1.985-21.781,14.89-28.818,107.696-58.73,215.382-117.478,323.18-176.018,5.024-2.728,6.633-5.287,5.666-11.018-10.08-59.769-20.964-119.431-29.45-179.431-8.176-57.81-13.831-115.979-20.503-174.001-1.24-10.783-2.005-21.621-3.074-32.425-1.351-13.65,3.147-22.326,14.302-27.343,11.197-5.035,22.911-3.153,31.267,6.514,27.33,31.621,54.929,63.044,81.225,95.517,53.037,65.498,101.258,134.486,145.156,206.459,3.662,6.003,6.934,6.305,13.031,4.397,103.631-32.421,207.329-64.626,311.035-96.805,19.87-6.165,37.543,7.088,34.915,27.164-.852,6.507-5.673,13.389-10.484,18.339-43.814,45.082-89.068,88.805-131.805,134.877-36.641,39.5-70.538,81.554-105.632,122.492-1.018,1.187-1.85,2.533-3.502,4.821,8.701,6.127,17.143,12.142,25.657,18.055,72.264,50.181,144.575,100.294,216.787,150.549,17.267,12.016,17.947,33.618.8,43.334-6.161,3.491-14.808,5.007-21.881,4.077-66.025-8.684-131.95-18.122-197.911-27.291-40.704-5.658-81.421-11.233-122.134-16.824-1.516-.208-3.063-.197-5.703-.353ZM620.805,969.051c.947-4.028,1.33-5.513,1.644-7.013,11.139-53.049,22.298-106.094,33.328-159.166.562-2.704.38-5.709-.097-8.462-3.729-21.524,11.556-38.155,33.287-35.228,52.096,7.017,104.132,14.471,156.196,21.727,29.216,4.072,58.439,8.101,87.658,12.149-2.222-3.546-5.08-5.848-8.087-7.937-53.658-37.267-107.33-74.513-161.007-111.753-19.494-13.524-22.266-28.441-6.831-46.667,46.996-55.492,94.374-110.662,141.93-165.674,12.81-14.818,26.78-28.631,41.131-43.875-2.402.282-3.333.249-4.174.51-68.723,21.294-137.449,42.583-206.121,64.043-2.473.773-4.808,2.923-6.539,4.991-15.134,18.079-34.712,16.769-46.662-3.481-46.754-79.23-99.106-154.582-156.274-226.6-9.186-11.573-18.725-22.865-29.665-36.192,0,3.997-.125,5.184.018,6.337,5.224,42.117,9.42,84.396,15.961,126.308,10.13,64.902,21.863,129.554,32.918,194.312,1.949,11.416-2.717,22.007-12.595,27.796-8.146,4.773-16.438,9.301-24.726,13.825-76.06,41.511-152.136,82.993-228.191,124.513-1.993,1.088-3.804,2.51-5.7,3.776,15.459,1.921,30.379,1.97,45.299,1.912,43.352-.168,86.717-1.143,130.051-.359,43.176.781,75.931,18.552,92.44,61.109,7.484,19.292,16.804,37.87,25.301,56.768,19.455,43.272,38.916,86.541,59.508,132.33Z"/></svg>